<?xml version="1.0" encoding="UTF-8"?>
<svg id="Vrstva_2" data-name="Vrstva 2" xmlns="http://www.w3.org/2000/svg" xmlns:xlink="http://www.w3.org/1999/xlink" viewBox="0 0 745.64 648.18">
  <defs>
    <style>
      .cls-1 {
        fill: #fff;
      }

      .cls-2 {
        opacity: .29;
      }

      .cls-3 {
        fill: #232323;
      }

      .cls-4 {
        fill: #d5a971;
      }

      .cls-5 {
        clip-path: url(#clippath);
      }

      .cls-6 {
        fill: none;
      }
    </style>
    <clipPath id="clippath">
      <path class="cls-6" d="M88.94,405.45c0,11.63-3.54,20.5-10.62,26.6-7.08,6.1-17.09,9.15-30.01,9.15H0v-117.17H44.98c11.53,0,20.68,2.52,27.45,7.56,6.77,5.04,10.16,12.14,10.16,21.29,0,5.33-1.37,10.24-4.11,14.73-2.74,4.5-6.23,7.75-10.47,9.77,6.36,1.76,11.44,5.04,15.24,9.85s5.7,10.88,5.7,18.22Zm-50.01-58.62h-9.38v22.56h8.14c10.13,0,15.2-4.01,15.2-12.02,0-7.03-4.65-10.55-13.96-10.55Zm2.25,45.44h-11.63v26.05h11.17c5.58,0,10.04-1.14,13.38-3.41,3.33-2.27,5-5.48,5-9.62,0-4.65-1.43-7.99-4.3-10s-7.41-3.02-13.61-3.02Zm96.93-2.87c0,7.55,1.82,13.52,5.47,17.91,3.64,4.39,9.14,6.59,16.48,6.59s13.53-2.38,17.64-7.13c4.11-4.76,6.16-10.91,6.16-18.46v-64.28h29.54v69.71c0,13.49-5.04,25.12-15.12,34.89-9.98,9.67-22.72,14.5-38.23,14.5s-28.1-4.52-37.45-13.57c-9.36-9.05-14.04-20.32-14.04-33.81v-71.73h29.54v65.37Zm193.39,16.05c0,11.63-3.54,20.5-10.62,26.6-7.08,6.1-17.09,9.15-30.01,9.15h-48.31v-117.17h44.98c11.53,0,20.68,2.52,27.45,7.56,6.77,5.04,10.16,12.14,10.16,21.29,0,5.33-1.37,10.24-4.11,14.73-2.74,4.5-6.23,7.75-10.47,9.77,6.36,1.76,11.44,5.04,15.24,9.85s5.7,10.88,5.7,18.22Zm-50.01-58.62h-9.38v22.56h8.14c10.13,0,15.2-4.01,15.2-12.02,0-7.03-4.65-10.55-13.96-10.55Zm2.25,45.44h-11.63v26.05h11.17c5.58,0,10.04-1.14,13.38-3.41,3.33-2.27,5-5.48,5-9.62,0-4.65-1.43-7.99-4.3-10s-7.41-3.02-13.61-3.02Zm159.5,13.18c0,11.63-3.54,20.5-10.62,26.6-7.08,6.1-17.09,9.15-30.01,9.15h-48.31v-117.17h44.98c11.53,0,20.68,2.52,27.45,7.56,6.77,5.04,10.16,12.14,10.16,21.29,0,5.33-1.37,10.24-4.11,14.73-2.74,4.5-6.23,7.75-10.47,9.77,6.36,1.76,11.44,5.04,15.24,9.85s5.7,10.88,5.7,18.22Zm-50.01-58.62h-9.38v22.56h8.14c10.13,0,15.2-4.01,15.2-12.02,0-7.03-4.65-10.55-13.96-10.55Zm2.25,45.44h-11.63v26.05h11.17c5.58,0,10.04-1.14,13.38-3.41,3.33-2.27,5-5.48,5-9.62,0-4.65-1.43-7.99-4.3-10s-7.41-3.02-13.61-3.02Zm145.39,19.7v29.23h-74.83v-117.17h29.54v87.93h45.28Zm101.11,1.32v27.92h-74.83v-117.17h74.83v27.92h-45.28v20.16h37.3v26.05h-37.3v15.12h45.28Zm22.64-56.61c0-10.55,3.59-18.95,10.78-25.2,7.18-6.25,16.57-9.38,28.15-9.38,16.54,0,29.52,6.15,38.93,18.46l-21.63,20.32c-5.89-6.98-11.97-10.47-18.22-10.47-2.48,0-4.51,.56-6.09,1.67-1.58,1.11-2.36,2.65-2.36,4.61-.36,1.65,.5,3.3,2.6,4.92,2.09,1.63,5,3.4,8.72,5.31l7.91,3.8c2.38,1.09,5.3,2.51,8.76,4.26,15.66,8.01,23.5,18.92,23.5,32.72,0,10.39-3.72,18.92-11.17,25.59-7.34,6.57-17.4,9.85-30.16,9.85-18.76,0-33.47-6.85-44.12-20.55l21.71-20.63c2.53,3.57,5.91,6.55,10.12,8.96,4.21,2.4,8.46,3.61,12.76,3.61,3.46,0,6.22-.74,8.26-2.21,2.04-1.47,3.06-3.37,3.06-5.7,0-3-2.12-5.76-6.36-8.3-3.21-1.86-5.17-2.97-5.89-3.33l-7.91-3.8-7.52-3.49c-15.87-7.6-23.81-17.94-23.81-31.02Z"/>
    </clipPath>
  </defs>
  <g id="Livello_1" data-name="Livello 1">
    <g>
      <path class="cls-3" d="M49.34,311.25h-10.79v-32.14h-13.14v-10.65H62.51v10.65h-13.17v32.14Z"/>
      <path class="cls-3" d="M80.07,311.25h-10.79v-42.79h10.79v17.56h18.44v-17.56h10.79v42.79h-10.79v-14.56h-18.44v14.56Z"/>
      <path class="cls-3" d="M144.66,301.05v10.2h-27.33v-42.79h27.33v10.2h-16.54v7.36h13.62v9.52h-13.62v5.52h16.54Z"/>
    </g>
    <path class="cls-3" d="M88.94,405.45c0,11.63-3.54,20.5-10.62,26.6-7.08,6.1-17.09,9.15-30.01,9.15H0v-117.17H44.98c11.53,0,20.68,2.52,27.45,7.56,6.77,5.04,10.16,12.14,10.16,21.29,0,5.33-1.37,10.24-4.11,14.73-2.74,4.5-6.23,7.75-10.47,9.77,6.36,1.76,11.44,5.04,15.24,9.85s5.7,10.88,5.7,18.22Zm-50.01-58.62h-9.38v22.56h8.14c10.13,0,15.2-4.01,15.2-12.02,0-7.03-4.65-10.55-13.96-10.55Zm2.25,45.44h-11.63v26.05h11.17c5.58,0,10.04-1.14,13.38-3.41,3.33-2.27,5-5.48,5-9.62,0-4.65-1.43-7.99-4.3-10s-7.41-3.02-13.61-3.02Zm96.93-2.87c0,7.55,1.82,13.52,5.47,17.91,3.64,4.39,9.14,6.59,16.48,6.59s13.53-2.38,17.64-7.13c4.11-4.76,6.16-10.91,6.16-18.46v-64.28h29.54v69.71c0,13.49-5.04,25.12-15.12,34.89-9.98,9.67-22.72,14.5-38.23,14.5s-28.1-4.52-37.45-13.57c-9.36-9.05-14.04-20.32-14.04-33.81v-71.73h29.54v65.37Zm193.39,16.05c0,11.63-3.54,20.5-10.62,26.6-7.08,6.1-17.09,9.15-30.01,9.15h-48.31v-117.17h44.98c11.53,0,20.68,2.52,27.45,7.56,6.77,5.04,10.16,12.14,10.16,21.29,0,5.33-1.37,10.24-4.11,14.73-2.74,4.5-6.23,7.75-10.47,9.77,6.36,1.76,11.44,5.04,15.24,9.85s5.7,10.88,5.7,18.22Zm-50.01-58.62h-9.38v22.56h8.14c10.13,0,15.2-4.01,15.2-12.02,0-7.03-4.65-10.55-13.96-10.55Zm2.25,45.44h-11.63v26.05h11.17c5.58,0,10.04-1.14,13.38-3.41,3.33-2.27,5-5.48,5-9.62,0-4.65-1.43-7.99-4.3-10s-7.41-3.02-13.61-3.02Zm159.5,13.18c0,11.63-3.54,20.5-10.62,26.6-7.08,6.1-17.09,9.15-30.01,9.15h-48.31v-117.17h44.98c11.53,0,20.68,2.52,27.45,7.56,6.77,5.04,10.16,12.14,10.16,21.29,0,5.33-1.37,10.24-4.11,14.73-2.74,4.5-6.23,7.75-10.47,9.77,6.36,1.76,11.44,5.04,15.24,9.85s5.7,10.88,5.7,18.22Zm-50.01-58.62h-9.38v22.56h8.14c10.13,0,15.2-4.01,15.2-12.02,0-7.03-4.65-10.55-13.96-10.55Zm2.25,45.44h-11.63v26.05h11.17c5.58,0,10.04-1.14,13.38-3.41,3.33-2.27,5-5.48,5-9.62,0-4.65-1.43-7.99-4.3-10s-7.41-3.02-13.61-3.02Zm145.39,19.7v29.23h-74.83v-117.17h29.54v87.93h45.28Zm101.11,1.32v27.92h-74.83v-117.17h74.83v27.92h-45.28v20.16h37.3v26.05h-37.3v15.12h45.28Zm22.64-56.61c0-10.55,3.59-18.95,10.78-25.2,7.18-6.25,16.57-9.38,28.15-9.38,16.54,0,29.52,6.15,38.93,18.46l-21.63,20.32c-5.89-6.98-11.97-10.47-18.22-10.47-2.48,0-4.51,.56-6.09,1.67-1.58,1.11-2.36,2.65-2.36,4.61-.36,1.65,.5,3.3,2.6,4.92,2.09,1.63,5,3.4,8.72,5.31l7.91,3.8c2.38,1.09,5.3,2.51,8.76,4.26,15.66,8.01,23.5,18.92,23.5,32.72,0,10.39-3.72,18.92-11.17,25.59-7.34,6.57-17.4,9.85-30.16,9.85-18.76,0-33.47-6.85-44.12-20.55l21.71-20.63c2.53,3.57,5.91,6.55,10.12,8.96,4.21,2.4,8.46,3.61,12.76,3.61,3.46,0,6.22-.74,8.26-2.21,2.04-1.47,3.06-3.37,3.06-5.7,0-3-2.12-5.76-6.36-8.3-3.21-1.86-5.17-2.97-5.89-3.33l-7.91-3.8-7.52-3.49c-15.87-7.6-23.81-17.94-23.81-31.02Z"/>
    <g class="cls-2">
      <g class="cls-5">
        <g>
          <ellipse class="cls-1" cx="698.08" cy="618.3" rx="6.3" ry="6.86"/>
          <ellipse class="cls-1" cx="297.37" cy="611.58" rx="10.84" ry="11.79"/>
          <ellipse class="cls-1" cx="247.34" cy="611.65" rx="11.09" ry="12.06"/>
          <ellipse class="cls-1" cx="706.9" cy="606.51" rx="6.3" ry="6.86"/>
          <ellipse class="cls-1" cx="668.66" cy="581.14" rx="8.63" ry="9.39"/>
          <ellipse class="cls-1" cx="619.7" cy="594.38" rx="11.91" ry="12.96"/>
          <ellipse class="cls-1" cx="598.22" cy="578.13" rx="5.73" ry="6.24"/>
          <ellipse class="cls-1" cx="530.3" cy="589.17" rx="12.79" ry="13.92"/>
          <ellipse class="cls-1" cx="477" cy="584.78" rx="8.32" ry="9.05"/>
          <ellipse class="cls-1" cx="461.24" cy="567.71" rx="11.59" ry="12.61"/>
          <ellipse class="cls-1" cx="412.79" cy="601.3" rx="9.51" ry="10.35"/>
          <ellipse class="cls-1" cx="350.79" cy="606.71" rx="10.27" ry="11.17"/>
          <ellipse class="cls-1" cx="321.43" cy="584.71" rx="4.98" ry="5.42"/>
          <ellipse class="cls-1" cx="260.63" cy="588.41" rx="5.42" ry="5.9"/>
          <ellipse class="cls-1" cx="223.9" cy="568.26" rx="7.31" ry="7.95"/>
          <ellipse class="cls-1" cx="186.22" cy="574.02" rx="7.75" ry="8.43"/>
          <ellipse class="cls-1" cx="133.11" cy="585.67" rx="1.89" ry="2.06"/>
          <ellipse class="cls-1" cx="67.14" cy="592.04" rx="3.59" ry="3.91"/>
          <ellipse class="cls-1" cx="10.37" cy="594.17" rx="6.3" ry="6.86"/>
          <ellipse class="cls-1" cx="693.1" cy="534.26" rx="6.3" ry="6.86"/>
          <ellipse class="cls-1" cx="656.69" cy="524.39" rx="11.91" ry="12.96"/>
          <ellipse class="cls-1" cx="642.7" cy="523.08" rx="10.14" ry="11.04"/>
          <ellipse class="cls-1" cx="558.78" cy="557.43" rx="8.32" ry="9.05"/>
          <ellipse class="cls-1" cx="550.02" cy="531.86" rx="7.5" ry="8.16"/>
          <ellipse class="cls-1" cx="480.21" cy="541.87" rx="8.69" ry="9.46"/>
          <ellipse class="cls-1" cx="417.52" cy="545.22" rx="5.1" ry="5.55"/>
          <ellipse class="cls-1" cx="377.13" cy="525.48" rx="9.32" ry="10.15"/>
          <ellipse class="cls-1" cx="342.1" cy="526.58" rx="9.26" ry="10.08"/>
          <ellipse class="cls-1" cx="314" cy="537.27" rx="11.91" ry="12.96"/>
          <ellipse class="cls-1" cx="270.21" cy="542.83" rx="2.46" ry="2.67"/>
          <ellipse class="cls-1" cx="201.28" cy="529.05" rx="7.43" ry="8.09"/>
          <ellipse class="cls-1" cx="186.03" cy="528.16" rx="7.69" ry="8.36"/>
          <ellipse class="cls-1" cx="136.2" cy="544.88" rx="5.99" ry="6.51"/>
          <ellipse class="cls-1" cx="51.27" cy="543.03" rx="6.3" ry="6.86"/>
          <ellipse class="cls-1" cx="18.63" cy="556.12" rx="6.3" ry="6.86"/>
          <ellipse class="cls-1" cx="694.43" cy="498.06" rx="12.16" ry="13.23"/>
          <ellipse class="cls-1" cx="649.06" cy="505.12" rx="13.23" ry="14.4"/>
          <ellipse class="cls-1" cx="608.8" cy="477.77" rx="11.78" ry="12.82"/>
          <ellipse class="cls-1" cx="591.41" cy="490.45" rx="10.84" ry="11.79"/>
          <ellipse class="cls-1" cx="511.46" cy="499.09" rx="5.04" ry="5.48"/>
          <ellipse class="cls-1" cx="487.45" cy="470.92" rx="11.4" ry="12.41"/>
          <ellipse class="cls-1" cx="430.94" cy="478.05" rx="10.21" ry="11.11"/>
          <ellipse class="cls-1" cx="383.37" cy="495.73" rx="2.52" ry="2.74"/>
          <ellipse class="cls-1" cx="341.85" cy="506.9" rx="12.48" ry="13.57"/>
          <ellipse class="cls-1" cx="304.86" cy="478.18" rx="10.71" ry="11.65"/>
          <ellipse class="cls-1" cx="245.58" cy="501.83" rx="11.53" ry="12.54"/>
          <ellipse class="cls-1" cx="209.6" cy="486.2" rx="2.77" ry="3.02"/>
          <ellipse class="cls-1" cx="167.83" cy="471.4" rx="6.49" ry="7.06"/>
          <ellipse class="cls-1" cx="97.83" cy="470.71" rx="4.6" ry="5"/>
          <ellipse class="cls-1" cx="57.76" cy="473.11" rx="5.86" ry="6.38"/>
          <ellipse class="cls-1" cx="13.27" cy="507.32" rx="6.36" ry="6.92"/>
          <ellipse class="cls-1" cx="-4.81" cy="500.32" rx="6.17" ry="6.72"/>
          <ellipse class="cls-1" cx="727.44" cy="448.5" rx="13.42" ry="14.6"/>
          <ellipse class="cls-1" cx="655.99" cy="461.87" rx="12.16" ry="13.23"/>
          <ellipse class="cls-1" cx="618.38" cy="423.89" rx="13.04" ry="14.19"/>
          <ellipse class="cls-1" cx="555.88" cy="430.27" rx="12.41" ry="13.5"/>
          <ellipse class="cls-1" cx="543.21" cy="452.96" rx="12.73" ry="13.85"/>
          <ellipse class="cls-1" cx="468.8" cy="452.89" rx="11.85" ry="12.89"/>
          <ellipse class="cls-1" cx="424.13" cy="463.99" rx="10.21" ry="11.11"/>
          <ellipse class="cls-1" cx="414.3" cy="447.47" rx="10.71" ry="11.65"/>
          <ellipse class="cls-1" cx="340.21" cy="431.02" rx="11.34" ry="12.34"/>
          <ellipse class="cls-1" cx="324.4" cy="432.25" rx="11.22" ry="12.2"/>
          <ellipse class="cls-1" cx="269.01" cy="463.86" rx="6.24" ry="6.79"/>
          <ellipse class="cls-1" cx="211.49" cy="443.15" rx="5.61" ry="6.1"/>
          <ellipse class="cls-1" cx="157.87" cy="463.79" rx="6.24" ry="6.79"/>
          <ellipse class="cls-1" cx="130.34" cy="425.19" rx="5.23" ry="5.69"/>
          <ellipse class="cls-1" cx="89.57" cy="425.67" rx="8.32" ry="9.05"/>
          <ellipse class="cls-1" cx="25.37" cy="458.85" rx="8" ry="8.71"/>
          <ellipse class="cls-1" cx="705.01" cy="381.53" rx="12.03" ry="13.09"/>
          <ellipse class="cls-1" cx="662.42" cy="388.31" rx="10.14" ry="11.04"/>
          <ellipse class="cls-1" cx="621.91" cy="380.22" rx="10.4" ry="11.31"/>
          <ellipse class="cls-1" cx="558.4" cy="404.01" rx="13.04" ry="14.19"/>
          <ellipse class="cls-1" cx="538.8" cy="392.01" rx="11.91" ry="12.96"/>
          <ellipse class="cls-1" cx="489.47" cy="413.81" rx="9.26" ry="10.08"/>
          <ellipse class="cls-1" cx="440.58" cy="383.79" rx="6.3" ry="6.86"/>
          <ellipse class="cls-1" cx="396.1" cy="388.04" rx="10.58" ry="11.52"/>
          <ellipse class="cls-1" cx="348.15" cy="385.91" rx="10.46" ry="11.38"/>
          <ellipse class="cls-1" cx="321.12" cy="383.72" rx="11.72" ry="12.75"/>
          <ellipse class="cls-1" cx="274.81" cy="390.99" rx="6.74" ry="7.33"/>
          <ellipse class="cls-1" cx="190.76" cy="407.44" rx="5.36" ry="5.83"/>
          <ellipse class="cls-1" cx="156.04" cy="387.01" rx="8.57" ry="9.32"/>
          <ellipse class="cls-1" cx="136.7" cy="398.94" rx="9.07" ry="9.87"/>
          <ellipse class="cls-1" cx="67.9" cy="389.55" rx="7.5" ry="8.16"/>
          <ellipse class="cls-1" cx="44.78" cy="419.02" rx="9.95" ry="10.83"/>
          <ellipse class="cls-1" cx="-2.92" cy="419.09" rx="9.95" ry="10.83"/>
          <ellipse class="cls-1" cx="702.68" cy="351.64" rx="6.68" ry="7.27"/>
          <ellipse class="cls-1" cx="673.83" cy="358.08" rx="8.32" ry="9.05"/>
          <ellipse class="cls-1" cx="635.14" cy="363.29" rx="11.53" ry="12.54"/>
          <ellipse class="cls-1" cx="555.82" cy="349.45" rx="12.73" ry="13.85"/>
          <ellipse class="cls-1" cx="522.23" cy="357.05" rx="3.09" ry="3.36"/>
          <ellipse class="cls-1" cx="474.48" cy="369.19" rx="7.75" ry="8.43"/>
          <ellipse class="cls-1" cx="446.37" cy="342.38" rx="8.69" ry="9.46"/>
          <ellipse class="cls-1" cx="391.62" cy="350.06" rx="9.7" ry="10.56"/>
          <ellipse class="cls-1" cx="361.44" cy="348.21" rx="7.75" ry="8.43"/>
          <ellipse class="cls-1" cx="288.86" cy="336.97" rx="6.74" ry="7.33"/>
          <ellipse class="cls-1" cx="275" cy="355.48" rx="9.32" ry="10.15"/>
          <ellipse class="cls-1" cx="201.85" cy="365.83" rx="8.06" ry="8.77"/>
          <ellipse class="cls-1" cx="176.77" cy="350.88" rx="11.4" ry="12.41"/>
          <ellipse class="cls-1" cx="98.9" cy="341.42" rx="4.85" ry="5.28"/>
          <ellipse class="cls-1" cx="62.92" cy="342.25" rx="8.44" ry="9.19"/>
          <ellipse class="cls-1" cx="27.32" cy="360.14" rx="10.27" ry="11.17"/>
          <ellipse class="cls-1" cx="731.41" cy="278.36" rx="4.6" ry="5"/>
          <ellipse class="cls-1" cx="689.2" cy="319.15" rx="8.44" ry="9.19"/>
          <ellipse class="cls-1" cx="615.17" cy="321.34" rx="9.64" ry="10.49"/>
          <ellipse class="cls-1" cx="575.41" cy="310.03" rx="8.76" ry="9.53"/>
          <ellipse class="cls-1" cx="551.34" cy="305.64" rx="11.72" ry="12.75"/>
          <ellipse class="cls-1" cx="476.43" cy="317.77" rx="3.65" ry="3.98"/>
          <ellipse class="cls-1" cx="421.05" cy="301.87" rx="4.22" ry="4.59"/>
          <ellipse class="cls-1" cx="404.66" cy="315.51" rx="4.47" ry="4.87"/>
          <ellipse class="cls-1" cx="341.85" cy="323.33" rx="11.97" ry="13.02"/>
          <ellipse class="cls-1" cx="295.41" cy="293.65" rx="4.91" ry="5.35"/>
          <ellipse class="cls-1" cx="246.39" cy="314.35" rx="11.22" ry="12.2"/>
          <ellipse class="cls-1" cx="201.6" cy="294.33" rx="7.18" ry="7.81"/>
          <ellipse class="cls-1" cx="145.14" cy="285.08" rx="9.01" ry="9.8"/>
          <ellipse class="cls-1" cx="125.23" cy="325.8" rx="8.88" ry="9.67"/>
          <ellipse class="cls-1" cx="60.46" cy="300.98" rx="8.95" ry="9.73"/>
          <ellipse class="cls-1" cx="44.27" cy="310.03" rx="7.81" ry="8.5"/>
          <ellipse class="cls-1" cx="737.52" cy="243.47" rx="6.49" ry="7.06"/>
          <ellipse class="cls-1" cx="648.5" cy="252.72" rx=".57" ry=".62"/>
          <ellipse class="cls-1" cx="558.52" cy="263.28" rx=".95" ry="1.03"/>
          <ellipse class="cls-1" cx="536.98" cy="254.91" rx="1.32" ry="1.44"/>
          <ellipse class="cls-1" cx="499.93" cy="269.93" rx="3.91" ry="4.25"/>
          <ellipse class="cls-1" cx="449.71" cy="238.81" rx="4.54" ry="4.94"/>
          <ellipse class="cls-1" cx="375.75" cy="253.75" rx="2.33" ry="2.54"/>
          <ellipse class="cls-1" cx="363.59" cy="265.95" rx="3.97" ry="4.32"/>
          <ellipse class="cls-1" cx="288.36" cy="270.27" rx="5.1" ry="5.55"/>
          <ellipse class="cls-1" cx="270.59" cy="241.55" rx="1.51" ry="1.65"/>
          <ellipse class="cls-1" cx="181.12" cy="250.25" rx="4.1" ry="4.46"/>
          <ellipse class="cls-1" cx="126.81" cy="247.99" rx="5.23" ry="5.69"/>
          <ellipse class="cls-1" cx="56.56" cy="245.87" rx="6.49" ry="7.06"/>
          <ellipse class="cls-1" cx="47.61" cy="254.78" rx="1.51" ry="1.65"/>
          <ellipse class="cls-1" cx="609.62" cy="218.38" rx="2.9" ry="3.15"/>
          <ellipse class="cls-1" cx="593.05" cy="210.49" rx="2.58" ry="2.81"/>
          <ellipse class="cls-1" cx="513.41" cy="206.65" rx="2.84" ry="3.08"/>
          <ellipse class="cls-1" cx="504.34" cy="191.3" rx="2.96" ry="3.22"/>
          <ellipse class="cls-1" cx="429.36" cy="211.25" rx=".69" ry=".75"/>
          <ellipse class="cls-1" cx="404.48" cy="208.64" rx="3.21" ry="3.5"/>
          <ellipse class="cls-1" cx="330" cy="208.23" rx="1.76" ry="1.92"/>
          <ellipse class="cls-1" cx="278.28" cy="220.3" rx="4.66" ry="5.07"/>
          <ellipse class="cls-1" cx="219.05" cy="221.12" rx="3.28" ry="3.56"/>
          <ellipse class="cls-1" cx="180.74" cy="200.9" rx="3.34" ry="3.63"/>
          <ellipse class="cls-1" cx="112" cy="220.98" rx="2.84" ry="3.08"/>
          <ellipse class="cls-1" cx="60.21" cy="206.86" rx="4.28" ry="4.66"/>
          <ellipse class="cls-1" cx="11.82" cy="224.68" rx="7.43" ry="8.09"/>
          <ellipse class="cls-1" cx="534.71" cy="152.77" rx="1.2" ry="1.3"/>
          <ellipse class="cls-1" cx="485.44" cy="171.08" rx="1.45" ry="1.58"/>
          <ellipse class="cls-1" cx="411.09" cy="160.59" rx=".95" ry="1.03"/>
          <ellipse class="cls-1" cx="150.94" cy="151.54" rx=".38" ry=".41"/>
          <ellipse class="cls-1" cx="125.3" cy="167.31" rx="1.64" ry="1.78"/>
          <ellipse class="cls-1" cx="72.69" cy="145.03" rx=".38" ry=".41"/>
        </g>
      </g>
    </g>
    <g>
      <path class="cls-4" d="M290.2,453.86c0,.49-.17,.91-.51,1.25-.34,.34-.86,1.1-1.54,2.28-.69,1.18-1.32,2.84-1.91,5-.1,1.08-.91,2.16-2.43,3.23-1.52,1.08-2.43,1.96-2.72,2.65,0,2.25-1,4.75-3.01,7.5-2.01,2.74-3.16,4.95-3.45,6.62-1.08,2.16-1.62,4.12-1.62,5.88,0,1.67,.54,2.99,1.62,3.97v.29c0,.78-.61,1.59-1.84,2.43-1.22,.83-1.98,1.54-2.28,2.13,0,.88-.17,2.52-.51,4.92-.34,2.4-.51,4.24-.51,5.51,0,3.04,.69,5.29,2.06,6.76,.49,.39,1.03,.59,1.62,.59,.69,0,1.4-.51,2.13-1.54,.73-1.03,1.15-1.59,1.25-1.69,1.27-2.25,3.53-4.73,6.76-7.42,3.23-2.7,5.49-4.92,6.76-6.69,.69-2.16,1.62-3.85,2.79-5.07,1.18-1.22,2.38-2.25,3.6-3.09,1.22-.83,2.08-1.59,2.57-2.28,3.04-4.21,7.89-9.53,14.55-15.95,6.66-6.42,11.37-11.2,14.11-14.33,.49-.39,1.42-.88,2.79-1.47,1.37-.59,2.47-1.2,3.31-1.84,.83-.64,1.3-1.5,1.4-2.57v-.59c0-1.37,1.37-3.04,4.12-5s4.41-3.53,5-4.7c1.27-1.18,3.63-3.18,7.06-6.03,3.43-2.84,6.13-5.19,8.09-7.06,18.52-14.31,34.5-23.86,47.92-28.67,.39-.1,1.08-.25,2.06-.44,.98-.2,1.86-.34,2.65-.44,.29,.59,.44,1.08,.44,1.47,0,.78-.42,1.45-1.25,1.99s-1.84,1.03-3.01,1.47c-1.18,.44-2.01,.86-2.5,1.25-.59,.39-1.52,.96-2.79,1.69-1.27,.73-2.33,1.4-3.16,1.98-.83,.59-1.49,1.22-1.98,1.91-1.27,.1-2.45,1.08-3.53,2.94-1.08,1.86-2.4,2.79-3.97,2.79-.59,0-1.08-.05-1.47-.15-1.08,.2-1.84,1.03-2.28,2.5s-1.2,2.21-2.28,2.21h-.15c-.2,.2-1.15,.96-2.87,2.28-1.72,1.32-2.87,2.43-3.45,3.31-2.45,.39-4.7,1.96-6.76,4.7s-3.87,4.46-5.44,5.15l-.88,2.94c-.98,1.57-3.33,3.68-7.06,6.32-3.72,2.65-5.88,4.7-6.47,6.17-.49,1.27-1.32,2.5-2.5,3.68-1.18,1.18-2.21,2.06-3.09,2.65s-2.25,1.37-4.12,2.35c-.88,.88-1.32,1.96-1.32,3.23v.88c0,.88-.2,1.52-.59,1.91l-2.5,2.5c-1.57,1.57-3.01,2.82-4.34,3.75s-2.52,1.4-3.6,1.4h-.15c-1.57,.29-2.35,1.23-2.35,2.79v.44c-.1,1.76-1.47,3.5-4.12,5.22s-4.21,3.01-4.7,3.9c-4.21,3.43-7.25,7.35-9.11,11.76-.1,.2-.88,.54-2.35,1.03-1.47,.49-2.5,1.22-3.09,2.21-.2,.29-.29,.64-.29,1.03s.2,.73,.59,1.03l.59,.44-.15,.15c-.1,.2-.15,.46-.15,.81s-.05,.64-.15,.88-.29,.54-.59,.88-.78,.66-1.47,.96-1.62,.54-2.79,.74c-.98,.2-3.75,3.58-8.31,10.14-4.56,6.57-7.72,10.04-9.48,10.44-.49,.1-1.42,.15-2.79,.15-3.43,0-5.63-.49-6.61-1.47-.88-1.08-2.08-1.99-3.6-2.72-1.52-.74-2.69-1.5-3.53-2.28-.83-.78-1.25-2.06-1.25-3.82v-.59c-1.08-.2-1.81-.74-2.21-1.62-.1-.1-.15-.59-.15-1.47,0-1.47,.1-3.58,.29-6.32,.2-2.74,.44-5.19,.73-7.35,.29-2.16,.49-3.19,.59-3.09,.2-.88,.44-2.06,.73-3.53s.78-3.77,1.47-6.91,1.25-5.71,1.69-7.72,.71-3.01,.81-3.01l2.94-8.08c.2-1.27,.93-3.28,2.21-6.03s1.91-4.51,1.91-5.29c0-.2-.1-.42-.29-.66-.2-.25-.29-.42-.29-.51s.15-.42,.44-.96c.29-.54,.73-1.32,1.32-2.35s1.08-2.13,1.47-3.31c.29-.88,.69-1.96,1.18-3.23,.49-1.27,.93-2.45,1.32-3.53,.39-1.08,.76-2.13,1.1-3.16l.81-2.43,.44-.88c.1-.59,.61-1.76,1.54-3.53,.93-1.76,1.64-3.63,2.13-5.59,.59-1.27,1.76-1.96,3.53-2.06,.88,.2,2.16,.34,3.82,.44,1.67,.1,3.19,.32,4.56,.66,1.37,.34,2.65,1,3.82,1.98,.1,.59,.71,1.1,1.84,1.54,1.13,.44,1.74,1.05,1.84,1.84,.88,.59,1.32,1.18,1.32,1.76s-.86,1.42-2.57,2.5c-1.72,1.08-2.62,2.01-2.72,2.79-.39,.49-1.2,1.37-2.43,2.65-1.22,1.27-2.23,2.45-3.01,3.53-.78,1.08-1.18,1.91-1.18,2.5,.1,.29,.15,.64,.15,1.03,0,.78-.71,1.45-2.13,1.98-1.42,.54-2.13,1.4-2.13,2.57v1.32Z"/>
      <path class="cls-4" d="M366.86,503.54c1.72-2.94,2.57-4.8,2.57-5.59,0-.39-.1-.59-.29-.59-.69,0-1.69,.49-3.01,1.47-1.32,.98-2.33,2.01-3.01,3.09-.88,1.18-2.4,2.79-4.56,4.85-2.16,2.06-3.48,3.53-3.97,4.41-.1,.59-.32,.96-.66,1.1-.34,.15-.98,.49-1.91,1.03s-1.94,1.45-3.01,2.72c-.2,.59-.49,1.08-.88,1.47s-.96,.78-1.69,1.18c-.74,.39-1.25,.74-1.54,1.03-.2,.1-.39,.44-.59,1.03-.2,.59-.44,.98-.73,1.18-1.18,.29-2.74,1.03-4.7,2.21s-3.38,1.81-4.26,1.91c-.29,.1-.73,.15-1.32,.15-1.08,0-2.45-.29-4.12-.88-.2-.29-.93-.81-2.21-1.54-1.27-.74-1.91-1.4-1.91-1.99,0-.49,.2-.93,.59-1.32,.59-3.82,1.76-7.2,3.53-10.14,.59-.39,1.1-1.05,1.54-1.98,.44-.93,.76-1.79,.96-2.57l.29-1.18v-.15c0-.1-.07-.29-.22-.59s-.22-.59-.22-.88c0-.39,.1-.73,.29-1.03,0-.1,.39-.34,1.18-.74,.78-.39,1.18-.78,1.18-1.18,0-.2-.05-.34-.15-.44,.49-.29,1.3-1.18,2.43-2.65,1.13-1.47,1.84-2.3,2.13-2.5,2.65-4.41,6.76-9.11,12.35-14.11s9.11-7.64,10.58-7.94c1.08,0,1.96-.47,2.65-1.4s1.32-1.49,1.91-1.69c.39-.2,1.64-.76,3.75-1.69,2.11-.93,3.85-1.62,5.22-2.06,1.37-.44,2.6-.66,3.68-.66,.78,0,2.08,.54,3.9,1.62s2.87,2.35,3.16,3.82c1.27,.1,2.06,.69,2.35,1.76s.73,1.71,1.32,1.91c-.29,1.27-.83,1.91-1.62,1.91-.1,0-.34-.1-.74-.29-1.76-.59-3.63-.88-5.59-.88-5,0-9.9,1.52-14.7,4.56-2.06,.2-3.6,.98-4.63,2.35-1.03,1.37-2.28,2.21-3.75,2.5-.39,.88-.78,1.52-1.18,1.91-.39,.39-.88,.66-1.47,.81-.59,.15-1.03,.37-1.32,.66l-.74,.59c-4.31,3.53-7.45,6.57-9.41,9.11-.1,0-.32,.05-.66,.15-.34,.1-.59,.22-.73,.37-.15,.15-.22,.46-.22,.96v.59c-.1,.39-.32,.81-.66,1.25-.34,.44-.81,.98-1.4,1.62-.59,.64-1.08,1.2-1.47,1.69-.78,.88-1.37,1.74-1.76,2.57s-.71,1.69-.96,2.57c-.24,.88-.47,1.52-.66,1.91l-.44,2.79v.15c0,.49,.05,.83,.15,1.03,.1,.49,.49,.74,1.18,.74,1.37,0,3.82-1.37,7.35-4.12,.88-.78,2.99-2.33,6.32-4.63,3.33-2.3,6.91-5.61,10.73-9.92,.29-.2,1.35-1.23,3.16-3.09,1.81-1.86,3.26-2.79,4.34-2.79h.29c.49,0,1.32-.61,2.5-1.84,1.18-1.23,2.6-2.84,4.26-4.85,1.67-2.01,2.84-3.36,3.53-4.04,.29-.1,.73-.15,1.32-.15,1.96,0,3.33,.69,4.12,2.06,.29,.49,.86,1.1,1.69,1.84,.83,.74,1.25,1.35,1.25,1.84,0,.29-.27,.69-.81,1.18s-1.05,.93-1.54,1.32l-.88,.44c-2.65,2.65-3.97,4.56-3.97,5.73v.15c-.29,.69-1.13,1.67-2.5,2.94-1.37,1.27-2.06,2.74-2.06,4.41v.29c0,.2-.25,.51-.74,.96-.49,.44-1.08,1.1-1.76,1.98s-1.23,1.96-1.62,3.23c-.98,.49-1.72,2.6-2.21,6.32v1.03c0,.29-.02,.74-.07,1.32-.05,.59-.07,1.03-.07,1.32,0,2.35,1.03,3.63,3.09,3.82,.59,.2,.88,.49,.88,.88,0,.29-.29,.73-.88,1.32-.98,.29-2.28,.88-3.9,1.76s-3.01,1.42-4.19,1.62c-.78,.29-1.52,.44-2.21,.44-1.67,0-2.5-.64-2.5-1.91v-.15c-.1-.49-.15-1.18-.15-2.06,0-4.7,1.57-10,4.7-15.88,.1-.29,1-1.91,2.72-4.85Z"/>
      <path class="cls-4" d="M440.06,534.56c-.64-1.37-1.15-2.35-1.54-2.94-.39-.49-.66-1.2-.81-2.13-.15-.93-.25-2.01-.29-3.23-.05-1.23-.12-2.13-.22-2.72-.59-.2-.88-.59-.88-1.18l.73-1.62c.29-.1,.56-.76,.81-1.98,.24-1.23,.47-2.67,.66-4.34,.2-1.67,.39-2.84,.59-3.53,.98-2.84,1.57-4.66,1.76-5.44,.2-.69,.51-1.4,.96-2.13,.44-.74,.66-1.3,.66-1.69v-.29c.2-1.57,.88-2.87,2.06-3.9,1.18-1.03,1.76-2.33,1.76-3.9,.39-1.08,1.2-2.5,2.43-4.26s1.84-2.79,1.84-3.09c0-.2-.15-.29-.44-.29-2.74,0-6.76,1.54-12.05,4.63-5.29,3.09-9.31,6.1-12.05,9.04-.39,.39-1.18,.86-2.35,1.4-1.18,.54-2.16,1.15-2.94,1.84-.78,.69-1.18,1.52-1.18,2.5v.44l-1.91,.59c-4.9,3.53-7.55,5.83-7.94,6.91-.2,.69-.69,1.03-1.47,1.03-.29,0-.74-.05-1.32-.15-.59-.1-.98-.15-1.18-.15-.88,0-1.32,.49-1.32,1.47,0,.2,.1,.54,.29,1.03,.2,.49,.29,.88,.29,1.18,0,.2-.1,.49-.29,.88-.59,.39-1.45,1.49-2.57,3.31-1.13,1.81-2.38,2.72-3.75,2.72-.88,0-1.76-.2-2.65-.59-.39-.98-1.47-2.23-3.23-3.75-1.76-1.52-2.65-2.77-2.65-3.75,0-.88,.44-1.81,1.32-2.79,.29-.69,.86-1.84,1.69-3.45s1.45-2.82,1.84-3.6c2.94-4.9,5.24-8.53,6.91-10.88,2.84-4.9,4.26-7.45,4.26-7.64,0-.78,.51-1.52,1.54-2.21,1.03-.69,1.64-1.32,1.84-1.91,.88-1.86,2.25-3.99,4.12-6.39,1.86-2.4,3.09-4.04,3.67-4.92,.29-.29,.81-.78,1.54-1.47,.73-.69,1.32-1.23,1.76-1.62,.44-.39,.96-.91,1.54-1.54,.59-.64,1.1-1.27,1.54-1.91,.44-.64,.81-1.3,1.1-1.98,.59-.59,1.37-.88,2.35-.88,.59,0,1.54,.15,2.87,.44,1.32,.29,2.33,.44,3.01,.44h.73c3.23,1.18,5.05,2.21,5.44,3.09-.2,.88-.98,1.81-2.35,2.79-1.37,.98-2.16,1.86-2.35,2.65-.39,.2-.93,.64-1.62,1.32-.69,.69-1.18,1.03-1.47,1.03h-.15c-.29-.39-.64-.59-1.03-.59-.59,0-1.37,.49-2.35,1.47,0,1.18-.64,2.16-1.91,2.94-1.27,.78-2.69,1.64-4.26,2.57-1.57,.93-2.6,2.03-3.09,3.31-1.37,.88-2.67,2.01-3.9,3.38s-2.52,2.94-3.9,4.7c-1.37,1.76-2.45,3.04-3.23,3.82-.69,.78-1.37,1.71-2.06,2.79s-1.18,1.91-1.47,2.5l-.59,1.03c0,.29-.15,.71-.44,1.25s-.44,.91-.44,1.1c0,.1,.1,.34,.29,.74,.29,.1,.64,.15,1.03,.15,.78,0,1.45-.49,1.98-1.47,.54-.98,1.15-1.57,1.84-1.76,.39-.2,1.13-.66,2.21-1.4,1.08-.73,2.5-1.71,4.26-2.94,1.76-1.23,3.38-2.33,4.85-3.31,2.65-1.27,6.62-3.46,11.91-6.54s8.38-4.83,9.26-5.22c.49-.2,1.89-.96,4.19-2.28,2.3-1.32,4.19-2.03,5.66-2.13h.15c.39,0,1.08-.17,2.06-.51,.98-.34,2.03-.78,3.16-1.32s1.84-.86,2.13-.96c.49-.39,1.03-.59,1.62-.59s1.4,.37,2.43,1.1c1.03,.74,1.84,1.1,2.42,1.1h.29c.49,.49,1.15,1.03,1.99,1.62s1.42,1.1,1.76,1.54c.34,.44,.51,1,.51,1.69,0,.2-.1,.69-.29,1.47-2.06,1.57-4.21,3.77-6.47,6.62-2.25,2.84-3.97,5.29-5.15,7.35l-1.91,3.09c-.1,.2-.32,1.13-.66,2.79-.34,1.67-1.15,2.65-2.43,2.94-1.37,.59-2.06,1.81-2.06,3.68v.73c0,.39-.05,.69-.15,.88-.1,.2-.2,.34-.29,.44h-.15c-.59,.29-1.03,1.08-1.32,2.35-.29,1.27-.73,2.06-1.32,2.35l-.88,1.76c-.2,1.86-.54,3.11-1.03,3.75-.49,.64-.78,1.2-.88,1.69-.1,.49-.15,1.23-.15,2.21,0,.59,.02,1.3,.07,2.13s.07,1.35,.07,1.54c0,.29-.05,.44-.15,.44-.2,.59-.29,.98-.29,1.18,0,.29,.22,.64,.66,1.03,.44,.39,.66,.98,.66,1.76,.49,.69,1,1.23,1.54,1.62,.54,.39,1,.61,1.4,.66,.39,.05,.74,.15,1.03,.29,.29,.15,.44,.37,.44,.66v.15c-.78,.69-1.72,1.03-2.79,1.03-1.76,0-3.23-.73-4.41-2.21-.29-.39-.76-1.27-1.4-2.65Z"/>
    </g>
    <g>
      <path class="cls-3" d="M363.21,110c.18,14.69,.78,28.91,1.72,42.64-9.89,60.39-25.53,111.56-43.5,153.19h14.99c12.82-30.4,24.37-65.76,33.39-105.92,5.65,40.66,14.51,76.09,25,105.92h14.45c-18-50.32-31.34-116.91-32.35-197.93l-13.71,2.1Z"/>
      <path class="cls-3" d="M517.37,305.83c4.49-55.71-1.53-129.29-27.27-215.23l-99.46,15.21c1.77,80.29,13.94,147.5,30.42,200.02h96.32Z"/>
      <path class="cls-3" d="M587.3,590.4c-.42-2.71-38.56,7.86-57-5.83-20.32-15.08-18.05-22.87-27.85-64.32-4.57-19.32-9.21-43.45-12.03-64.95h-19.04c3.99,22.02,6.96,47.72,8.43,68.42,3.03,42.48,7.53,49.24-7.35,69.7-13.51,18.57-53.07,19.89-52.65,22.6,.41,2.71,1.76,.77,1.76,.77l164.27-25.12s1.86,1.45,1.45-1.26Z"/>
      <path class="cls-3" d="M255.87,116.84c-33.68,71.87-50.67,136.44-56.73,188.99h108.59c17.9-43.98,33.68-97.21,44.3-159.36l-96.16-29.63Z"/>
      <path class="cls-3" d="M199.57,616.8c-11.72-22.42-6.28-28.45,2.95-70.02,6.47-29.16,17.53-68.18,27.97-91.48h-22.79c-5.33,24.92-16.94,59.33-27.07,84.73-15.77,39.56-14.67,47.6-36.98,59.54-20.25,10.83-56.43-5.21-57.24-2.59-.81,2.62,1.25,1.46,1.25,1.46l158.81,48.94s1.05,2.12,1.86-.5c.81-2.62-38.13-9.72-48.77-30.07Z"/>
    </g>
    <g>
      <path class="cls-4" d="M371.82,83.89c-3.06,3.06-3.06,8.01,0,11.06,3.06,3.06,8.01,3.06,11.06,0,3.06-3.06,3.06-8.01,0-11.06-3.06-3.06-8.01-3.06-11.06,0Z"/>
      <path class="cls-4" d="M316.22,77.46c-4.44,4.44-4.44,11.65,0,16.09,4.44,4.44,11.65,4.44,16.09,0,4.44-4.44,4.44-11.65,0-16.09-4.44-4.44-11.65-4.44-16.09,0Z"/>
      <path class="cls-4" d="M409.14,39.08c-4.44-4.44-11.65-4.44-16.09,0-4.44,4.44-4.44,11.65,0,16.09,4.44,4.44,11.65,4.44,16.09,0,4.44-4.44,4.44-11.65,0-16.09Z"/>
      <path class="cls-4" d="M370.36,66.23c5.85-5.85,5.85-15.33,0-21.18-5.85-5.85-15.33-5.85-21.18,0-5.85,5.85-5.85,15.33,0,21.18,5.85,5.85,15.33,5.85,21.18,0Z"/>
      <path class="cls-4" d="M321.81,110.43c-1.84,1.84-1.84,4.81,0,6.65,1.84,1.84,4.81,1.84,6.65,0,1.84-1.84,1.84-4.81,0-6.65-1.84-1.84-4.81-1.84-6.65,0Z"/>
      <path class="cls-4" d="M396.74,68.27c-1.84,1.84-1.84,4.81,0,6.65,1.84,1.84,4.81,1.84,6.65,0,1.84-1.84,1.84-4.81,0-6.65-1.84-1.84-4.81-1.84-6.65,0Z"/>
      <path class="cls-4" d="M322.94,52.24c6.4-.55,11.14-6.19,10.59-12.6-.55-6.4-6.19-11.14-12.6-10.59-6.4,.55-11.14,6.19-10.59,12.6,.55,6.4,6.19,11.14,12.6,10.59Z"/>
      <path class="cls-4" d="M374.02,23.23c6.4-.55,11.14-6.19,10.59-12.6-.55-6.4-6.19-11.14-12.6-10.59-6.4,.55-11.14,6.19-10.59,12.6,.55,6.4,6.19,11.14,12.6,10.59Z"/>
    </g>
  </g>
</svg>